<?xml version="1.0" encoding="UTF-8"?>
<svg id="_レイヤー_2" data-name="レイヤー 2" xmlns="http://www.w3.org/2000/svg" viewBox="0 0 145.24 145.24">
  <defs>
    <style>
      .cls-1 {
        fill: #fffcf5;
      }
    </style>
  </defs>
  <g id="_レイヤー_1-2" data-name="レイヤー 1">
    <g>
      <path class="cls-1" d="M72.62,5.67c36.92,0,66.95,30.03,66.95,66.95s-30.04,66.95-66.95,66.95S5.67,109.54,5.67,72.62,35.7,5.67,72.62,5.67M72.62,0C32.51,0,0,32.51,0,72.62s32.51,72.62,72.62,72.62,72.62-32.51,72.62-72.62S112.73,0,72.62,0h0Z"/>
      <polygon class="cls-1" points="99.45 57.44 95.44 61.45 103.78 69.79 34.62 69.79 34.62 75.46 103.78 75.46 95.44 83.79 99.45 87.8 114.63 72.62 99.45 57.44"/>
    </g>
  </g>
</svg>