<?xml version="1.0" encoding="UTF-8"?>
<svg id="_レイヤー_2" data-name="レイヤー 2" xmlns="http://www.w3.org/2000/svg" viewBox="0 0 145.24 145.24">
  <defs>
    <style>
      .cls-1 {
        fill: #17242a;
      }
    </style>
  </defs>
  <g id="_レイヤー_1-2" data-name="レイヤー 1">
    <g>
      <path class="cls-1" d="M72.62,5.67c36.92,0,66.95,30.03,66.95,66.95s-30.04,66.95-66.95,66.95S5.67,109.54,5.67,72.62,35.7,5.67,72.62,5.67M72.62,0C32.51,0,0,32.51,0,72.62s32.51,72.62,72.62,72.62,72.62-32.51,72.62-72.62S112.73,0,72.62,0h0Z"/>
      <g>
        <path class="cls-1" d="M99.21,34.86l-4.01,4.01,8.34,8.33h-10.3c-10.18,0-18.64,11.66-27.59,24-9.28,12.79-18.88,26.02-29.83,26.02v5.67c13.84,0,24.3-14.42,34.42-28.36,7.73-10.65,15.72-21.66,23-21.66h10.3l-8.34,8.34,4.01,4.01,15.18-15.18-15.18-15.18Z"/>
        <g>
          <path class="cls-1" d="M57.57,65.29c1.15-1.58,2.3-3.16,3.46-4.73-7.44-9.07-15.5-16.2-25.23-16.2v5.67c7.82,0,14.95,6.75,21.77,15.26Z"/>
          <path class="cls-1" d="M95.2,86.04l8.34,8.34h-10.3c-5.12,0-10.59-5.44-16.07-12.37-1.14,1.57-2.3,3.15-3.48,4.73,6.18,7.63,12.45,13.31,19.56,13.31h10.3l-8.34,8.33,4.01,4.01,15.18-15.18-15.18-15.18-4.01,4.01Z"/>
        </g>
      </g>
    </g>
  </g>
</svg>